<mxfile host="app.diagrams.net" agent="Mozilla/5.0 (Windows NT 10.0; Win64; x64) AppleWebKit/537.36 (KHTML, like Gecko) Chrome/133.0.0.0 Safari/537.36 OPR/118.0.0.0" version="26.2.12">
  <diagram name="Página-1" id="aDhZ-OPljT1riyZXtAfU">
    <mxGraphModel dx="1003" dy="540" grid="1" gridSize="10" guides="1" tooltips="1" connect="1" arrows="0" fold="1" page="1" pageScale="1" pageWidth="827" pageHeight="1169" math="0" shadow="0">
      <root>
        <mxCell id="0" />
        <mxCell id="1" parent="0" />
        <mxCell id="oa1QGvFLgXzbqehos-T0-7" value="Mostrar todas&lt;div&gt;as cartas&lt;/div&gt;" style="ellipse;whiteSpace=wrap;html=1;" parent="1" vertex="1">
          <mxGeometry x="146" y="260" width="120" height="80" as="geometry" />
        </mxCell>
        <mxCell id="oa1QGvFLgXzbqehos-T0-9" value="&lt;font style=&quot;font-size: 10px;&quot;&gt;Front-&lt;/font&gt;&lt;span style=&quot;font-size: 10px; background-color: transparent; color: light-dark(rgb(0, 0, 0), rgb(255, 255, 255));&quot;&gt;end&lt;/span&gt;" style="shape=umlFrame;whiteSpace=wrap;html=1;pointerEvents=0;align=center;" parent="1" vertex="1">
          <mxGeometry x="130" y="210" width="300" height="160" as="geometry" />
        </mxCell>
        <mxCell id="oa1QGvFLgXzbqehos-T0-10" value="Mostrar baralho do jogador" style="ellipse;whiteSpace=wrap;html=1;" parent="1" vertex="1">
          <mxGeometry x="296" y="260" width="120" height="80" as="geometry" />
        </mxCell>
        <mxCell id="oa1QGvFLgXzbqehos-T0-11" value="MongoDB" style="shape=cylinder3;whiteSpace=wrap;html=1;boundedLbl=1;backgroundOutline=1;size=15;" parent="1" vertex="1">
          <mxGeometry x="530" y="240" width="86" height="120" as="geometry" />
        </mxCell>
        <mxCell id="oa1QGvFLgXzbqehos-T0-13" value="PokéAPI" style="shape=cylinder3;whiteSpace=wrap;html=1;boundedLbl=1;backgroundOutline=1;size=15;" parent="1" vertex="1">
          <mxGeometry x="653" y="240" width="86" height="120" as="geometry" />
        </mxCell>
        <mxCell id="oa1QGvFLgXzbqehos-T0-16" value="&lt;font style=&quot;font-size: 10px;&quot;&gt;Back-&lt;/font&gt;&lt;span style=&quot;font-size: 10px; background-color: transparent; color: light-dark(rgb(0, 0, 0), rgb(255, 255, 255));&quot;&gt;end&lt;/span&gt;" style="shape=umlFrame;whiteSpace=wrap;html=1;pointerEvents=0;align=center;" parent="1" vertex="1">
          <mxGeometry x="480" y="210" width="300" height="160" as="geometry" />
        </mxCell>
        <mxCell id="oa1QGvFLgXzbqehos-T0-17" value="SPA (React)" style="text;html=1;align=center;verticalAlign=middle;whiteSpace=wrap;rounded=0;" parent="1" vertex="1">
          <mxGeometry x="356" y="210" width="74" height="30" as="geometry" />
        </mxCell>
        <mxCell id="oa1QGvFLgXzbqehos-T0-18" value="User&lt;div&gt;&lt;br&gt;&lt;/div&gt;" style="shape=umlActor;verticalLabelPosition=bottom;verticalAlign=top;html=1;outlineConnect=0;" parent="1" vertex="1">
          <mxGeometry x="60" y="240" width="30" height="60" as="geometry" />
        </mxCell>
        <mxCell id="oa1QGvFLgXzbqehos-T0-24" style="rounded=0;orthogonalLoop=1;jettySize=auto;html=1;exitX=0.5;exitY=0.5;exitDx=0;exitDy=0;exitPerimeter=0;entryX=0.011;entryY=0.373;entryDx=0;entryDy=0;entryPerimeter=0;" parent="1" source="oa1QGvFLgXzbqehos-T0-18" target="oa1QGvFLgXzbqehos-T0-9" edge="1">
          <mxGeometry relative="1" as="geometry" />
        </mxCell>
        <mxCell id="oa1QGvFLgXzbqehos-T0-25" style="rounded=0;orthogonalLoop=1;jettySize=auto;html=1;exitX=1.006;exitY=0.349;exitDx=0;exitDy=0;exitPerimeter=0;" parent="1" source="oa1QGvFLgXzbqehos-T0-9" edge="1">
          <mxGeometry relative="1" as="geometry">
            <mxPoint x="85" y="280" as="sourcePoint" />
            <mxPoint x="480" y="266" as="targetPoint" />
          </mxGeometry>
        </mxCell>
        <mxCell id="lToIrANrXexFe-QB8JkS-2" value="SOA (FastAPI)" style="text;html=1;align=center;verticalAlign=middle;whiteSpace=wrap;rounded=0;" vertex="1" parent="1">
          <mxGeometry x="680" y="210" width="100" height="30" as="geometry" />
        </mxCell>
      </root>
    </mxGraphModel>
  </diagram>
</mxfile>
